<svg width="64" height="64" viewBox="0 0 64 64" fill="none" xmlns="http://www.w3.org/2000/svg">
<path d="M28.4319 30.1445L28.8622 29.3954H27.9984H20.6503V29.3926H20.1503C18.0994 29.3926 16.4275 28.129 15.7679 26.6151L15.7677 26.6146C15.442 25.8691 15.2824 25.1788 15.3832 24.3294C15.4862 23.4622 15.8654 22.3896 16.697 20.8968L16.6977 20.8954L27.9745 0.5H39.8487L28.5359 20.0618L28.102 20.8121H28.9688H35.5643C37.6143 20.8121 39.2868 22.0805 39.9468 23.5926C40.2727 24.34 40.4329 25.0312 40.3324 25.8804C40.23 26.7457 39.8522 27.815 39.0227 29.3017L31.3402 41.8676H21.6969L28.4319 30.1445ZM7.15687 0.5C10.7627 0.5 13.7101 3.37923 13.8137 6.95665V7.15155C13.8137 10.819 10.8277 13.8031 7.15687 13.8031C3.48608 13.8031 0.5 10.819 0.5 7.15155C0.5 3.48412 3.48608 0.5 7.15687 0.5ZM53.9162 29.6168H63.4994C63.3909 48.3166 48.1441 63.5 29.4174 63.5C24.3437 63.5 19.3479 62.3629 14.7998 60.1944L14.4299 60.018C13.7434 59.6802 13.0691 59.3235 12.4108 58.9388L12.4077 58.9371C12.2317 58.8359 12.0838 58.7482 11.9636 58.6756L16.8402 50.2291C17.2206 50.4445 17.628 50.6638 17.7979 50.7538L17.7979 50.7538L17.8031 50.7565C21.3954 52.6043 25.3214 53.7684 29.4174 53.7684C42.7994 53.7684 53.3026 42.9188 53.9162 29.6168ZM49.1876 7.65089C49.1876 3.70967 52.3966 0.5 56.3438 0.5C60.2909 0.5 63.4999 3.70967 63.4999 7.65089C63.4999 11.592 60.2882 14.8018 56.3438 14.8018C52.3993 14.8018 49.1876 11.592 49.1876 7.65089Z" fill="url(#paint0_linear_1097_22329)" stroke="url(#paint1_linear_1097_22329)"/>
<defs>
<linearGradient id="paint0_linear_1097_22329" x1="32" y1="0" x2="32" y2="64" gradientUnits="userSpaceOnUse">
<stop stop-color="#2F3235"/>
<stop offset="1" stop-color="#2F3235" stop-opacity="0.4"/>
</linearGradient>
<linearGradient id="paint1_linear_1097_22329" x1="32" y1="0" x2="32" y2="64" gradientUnits="userSpaceOnUse">
<stop stop-color="#2F3235"/>
<stop offset="1" stop-color="#2F3235" stop-opacity="0.8"/>
</linearGradient>
</defs>
</svg>
