<svg width="48" height="11" viewBox="0 0 48 11" fill="none" xmlns="http://www.w3.org/2000/svg">
<path d="M18.6652 3.68835V10.0655H20.5809V3.68835C20.2775 3.77917 19.9556 3.82815 19.6223 3.82815C19.289 3.82815 18.9685 3.77917 18.6652 3.68835Z" fill="#2F3235"/>
<path d="M27.4644 3.51096C27.0712 3.26276 26.6261 3.13818 26.1302 3.13818C25.6343 3.13818 25.1536 3.2504 24.7456 3.4753C24.525 3.5975 24.331 3.74585 24.1626 3.91845V3.423H22.323V10.065H24.1626V6.17272C24.1626 5.9017 24.2221 5.66253 24.3386 5.45712C24.4551 5.25028 24.6177 5.091 24.8236 4.97926C25.0295 4.86609 25.2639 4.80998 25.5259 4.80998C25.9286 4.80998 26.2567 4.93694 26.5106 5.18942C26.7631 5.4419 26.8891 5.77046 26.8891 6.17272V10.065H28.7301V5.76571C28.7301 5.30734 28.6179 4.87845 28.393 4.48047C28.1691 4.08154 27.8591 3.75917 27.4658 3.51096H27.4644Z" fill="#2F3235"/>
<path d="M19.6223 0.187866C18.9718 0.187866 18.4426 0.716604 18.4426 1.36659C18.4426 2.01658 18.9718 2.54531 19.6223 2.54531C20.2728 2.54531 20.802 2.01658 20.802 1.36659C20.802 0.716604 20.2728 0.187866 19.6223 0.187866Z" fill="#2F3235"/>
<path d="M0 6.54983V7.91589C0 9.09747 0.9581 10.0556 2.13968 10.0556H6.87502V8.32243H3.05213C2.42211 8.32243 1.91097 7.90876 1.91097 7.18127V5.85562H6.30491V4.17003H1.91097V1.81639H6.87502V0.178345H0V6.54983Z" fill="#2F3235"/>
<path d="M39.4747 3.13867C38.7158 3.13867 38.1353 3.37974 37.7325 3.86188C37.7278 3.86759 37.723 3.87329 37.7183 3.879V3.42301H35.8777V10.065H37.7183V6.31395C37.7183 5.80804 37.8424 5.43098 38.0906 5.18278C38.3312 4.94218 38.6398 4.81856 39.0164 4.81142C39.0287 4.81047 39.0406 4.81047 39.053 4.81047C39.0996 4.81047 39.1452 4.81237 39.1894 4.8157C39.1961 4.81618 39.2032 4.81665 39.2103 4.8176C39.2237 4.81856 39.236 4.81998 39.2489 4.82188C39.2703 4.82426 39.2926 4.82759 39.3164 4.83139C39.3202 4.83187 39.3245 4.83235 39.3288 4.8333C39.4961 4.86087 39.7167 4.91936 39.9573 5.04251C40.1556 4.50379 40.4504 4.00928 40.8218 3.57945C40.6767 3.4601 40.5232 3.3669 40.3596 3.29986C40.0976 3.1924 39.8023 3.13867 39.4747 3.13867Z" fill="#2F3235"/>
<path d="M30.9383 2.59281C30.9369 2.61896 30.9354 2.64417 30.935 2.66984C30.934 2.69362 30.9335 2.71787 30.9331 2.74212C30.9331 2.7521 30.9326 2.76209 30.9326 2.77207H30.9331C30.9326 2.77825 30.9326 2.78396 30.9326 2.79014V3.42348H29.5751V5.13427H30.9326V10.0655H32.7732V5.13427H34.6276V3.42348H32.7732V2.58663C32.7732 2.05599 33.2358 1.67275 33.8069 1.67275C34.1278 1.67275 34.4378 1.81682 34.6276 2.017L35.4392 0.610521C34.9647 0.228708 34.3613 0 33.7042 0C32.0671 0 31.0182 1.14544 30.9383 2.59281Z" fill="#2F3235"/>
<path d="M12.6479 6.88267L10.028 0.178345H7.85266L11.5144 9.52968C11.5144 9.52968 11.5148 9.53016 11.5153 9.53159C11.5163 9.53301 11.5172 9.53444 11.5177 9.53634C11.5291 9.56059 11.5405 9.58389 11.5524 9.60624C11.6499 9.78312 11.949 10.2087 12.5704 10.242C12.5747 10.242 12.579 10.2424 12.5833 10.2424H12.7126C12.7169 10.2424 12.7211 10.242 12.7254 10.242C13.4482 10.2034 13.7344 9.63381 13.7758 9.54205C13.7791 9.53396 13.781 9.52968 13.781 9.52968L17.4427 0.178345H15.2674L12.6479 6.88267Z" fill="#2F3235"/>
<path d="M46.2854 3.41922V3.82338C45.7186 3.39925 45.0201 3.14819 44.2641 3.14819C42.3717 3.14819 40.8378 4.71777 40.8378 6.65394C40.8378 8.59011 42.3717 10.1602 44.2641 10.1602C45.0201 10.1602 45.7186 9.9091 46.2854 9.48449V10.0613H48V3.41922H46.2854ZM44.3777 8.4584C43.4249 8.4584 42.7364 7.65055 42.7364 6.65394C42.7364 5.65732 43.4249 4.84947 44.3777 4.84947C45.3306 4.84947 46.0196 5.65732 46.0196 6.65394C46.0196 7.65055 45.3311 8.4584 44.3777 8.4584Z" fill="#2F3235"/>
</svg>
